<mxfile host="app.diagrams.net" modified="2020-09-16T14:23:23.692Z" agent="5.0 (Windows NT 6.1; Win64; x64) AppleWebKit/537.36 (KHTML, like Gecko) Chrome/85.0.4183.102 Safari/537.36" etag="XFYW8vsVRXFqijSgu7Ja" version="13.7.1" type="github">
  <diagram id="kYa5CTX426i4Qn7B1aCe" name="Page-1">
    <mxGraphModel dx="1447" dy="2157" grid="1" gridSize="10" guides="1" tooltips="1" connect="1" arrows="1" fold="1" page="1" pageScale="1" pageWidth="827" pageHeight="1169" math="0" shadow="0">
      <root>
        <mxCell id="0" />
        <mxCell id="1" parent="0" />
        <mxCell id="fMsX-KVq4IvT85VDNS2a-1" value="RTW" style="rounded=1;whiteSpace=wrap;html=1;fillColor=#1ba1e2;strokeColor=#006EAF;fontColor=#ffffff;" vertex="1" parent="1">
          <mxGeometry x="340" y="350" width="1110" height="190" as="geometry" />
        </mxCell>
        <mxCell id="fMsX-KVq4IvT85VDNS2a-2" value="KAFKA" style="rounded=1;whiteSpace=wrap;html=1;" vertex="1" parent="1">
          <mxGeometry x="1270" y="-130" width="120" height="350" as="geometry" />
        </mxCell>
        <mxCell id="fMsX-KVq4IvT85VDNS2a-3" value="" style="endArrow=classic;html=1;entryX=0.417;entryY=1;entryDx=0;entryDy=0;entryPerimeter=0;" edge="1" parent="1" target="fMsX-KVq4IvT85VDNS2a-2">
          <mxGeometry width="50" height="50" relative="1" as="geometry">
            <mxPoint x="1320" y="350" as="sourcePoint" />
            <mxPoint x="1110" y="230" as="targetPoint" />
            <Array as="points" />
          </mxGeometry>
        </mxCell>
        <mxCell id="fMsX-KVq4IvT85VDNS2a-4" value="写入数据&lt;br style=&quot;font-size: 15px;&quot;&gt;1.规则中标&lt;br style=&quot;font-size: 15px;&quot;&gt;2.mbqy数据" style="text;html=1;align=center;verticalAlign=middle;resizable=0;points=[];autosize=1;fontSize=15;fontStyle=1;fontFamily=Lucida Console;" vertex="1" parent="1">
          <mxGeometry x="1330" y="245" width="100" height="60" as="geometry" />
        </mxCell>
        <mxCell id="fMsX-KVq4IvT85VDNS2a-5" value="规则引擎" style="rounded=0;whiteSpace=wrap;html=1;fontFamily=Lucida Console;fontSize=15;fillColor=#fad9d5;strokeColor=#ae4132;" vertex="1" parent="1">
          <mxGeometry x="870" y="370" width="350" height="120" as="geometry" />
        </mxCell>
        <mxCell id="fMsX-KVq4IvT85VDNS2a-7" value="bk服务" style="rounded=0;whiteSpace=wrap;html=1;fontFamily=Lucida Console;fontSize=15;fillColor=#fad9d5;strokeColor=#ae4132;" vertex="1" parent="1">
          <mxGeometry x="400" y="370" width="180" height="120" as="geometry" />
        </mxCell>
        <mxCell id="fMsX-KVq4IvT85VDNS2a-9" value="查询服务" style="rounded=0;whiteSpace=wrap;html=1;fontFamily=Lucida Console;fontSize=15;fillColor=#fad9d5;strokeColor=#ae4132;" vertex="1" parent="1">
          <mxGeometry x="600" y="370" width="180" height="120" as="geometry" />
        </mxCell>
        <mxCell id="fMsX-KVq4IvT85VDNS2a-13" value="" style="edgeStyle=orthogonalEdgeStyle;rounded=0;orthogonalLoop=1;jettySize=auto;html=1;fontFamily=Lucida Console;fontSize=15;" edge="1" parent="1" source="fMsX-KVq4IvT85VDNS2a-11" target="fMsX-KVq4IvT85VDNS2a-2">
          <mxGeometry relative="1" as="geometry">
            <Array as="points">
              <mxPoint x="980" y="110" />
              <mxPoint x="980" y="110" />
            </Array>
          </mxGeometry>
        </mxCell>
        <mxCell id="fMsX-KVq4IvT85VDNS2a-20" value="" style="edgeStyle=orthogonalEdgeStyle;rounded=0;orthogonalLoop=1;jettySize=auto;html=1;fontFamily=Lucida Console;fontSize=15;entryX=0.441;entryY=-0.011;entryDx=0;entryDy=0;entryPerimeter=0;" edge="1" parent="1" source="fMsX-KVq4IvT85VDNS2a-11" target="fMsX-KVq4IvT85VDNS2a-1">
          <mxGeometry relative="1" as="geometry">
            <mxPoint x="820" y="310" as="targetPoint" />
          </mxGeometry>
        </mxCell>
        <mxCell id="fMsX-KVq4IvT85VDNS2a-11" value="GK" style="rounded=1;whiteSpace=wrap;html=1;fontFamily=Lucida Console;fontSize=15;fillColor=#e51400;strokeColor=#B20000;fontColor=#ffffff;" vertex="1" parent="1">
          <mxGeometry x="550" y="-130" width="560" height="350" as="geometry" />
        </mxCell>
        <mxCell id="fMsX-KVq4IvT85VDNS2a-12" value="matrixgate" style="rounded=1;whiteSpace=wrap;html=1;fontFamily=Lucida Console;fontSize=15;fillColor=#cdeb8b;strokeColor=#36393d;" vertex="1" parent="1">
          <mxGeometry x="410" y="-410" width="870" height="130" as="geometry" />
        </mxCell>
        <mxCell id="fMsX-KVq4IvT85VDNS2a-15" value="拉取消费" style="text;html=1;align=center;verticalAlign=middle;resizable=0;points=[];autosize=1;fontSize=15;fontFamily=Lucida Console;" vertex="1" parent="1">
          <mxGeometry x="1130" y="60" width="80" height="20" as="geometry" />
        </mxCell>
        <mxCell id="fMsX-KVq4IvT85VDNS2a-22" value="" style="edgeStyle=orthogonalEdgeStyle;rounded=0;orthogonalLoop=1;jettySize=auto;html=1;fontFamily=Lucida Console;fontSize=15;exitX=0.998;exitY=0.363;exitDx=0;exitDy=0;exitPerimeter=0;" edge="1" parent="1" source="fMsX-KVq4IvT85VDNS2a-11" target="fMsX-KVq4IvT85VDNS2a-2">
          <mxGeometry relative="1" as="geometry">
            <Array as="points">
              <mxPoint x="1250" y="-3" />
              <mxPoint x="1250" y="-3" />
            </Array>
          </mxGeometry>
        </mxCell>
        <mxCell id="fMsX-KVq4IvT85VDNS2a-19" value="消息分区&lt;br&gt;&amp;nbsp;按顺序写入" style="text;html=1;align=center;verticalAlign=middle;resizable=0;points=[];autosize=1;fontSize=15;fontFamily=Lucida Console;" vertex="1" parent="1">
          <mxGeometry x="1110" y="-50" width="100" height="40" as="geometry" />
        </mxCell>
        <mxCell id="fMsX-KVq4IvT85VDNS2a-23" value="" style="endArrow=classic;html=1;fontFamily=Lucida Console;fontSize=15;entryX=0.486;entryY=1.01;entryDx=0;entryDy=0;entryPerimeter=0;" edge="1" parent="1" source="fMsX-KVq4IvT85VDNS2a-11" target="fMsX-KVq4IvT85VDNS2a-12">
          <mxGeometry width="50" height="50" relative="1" as="geometry">
            <mxPoint x="830" y="-134" as="sourcePoint" />
            <mxPoint x="820" y="-280" as="targetPoint" />
          </mxGeometry>
        </mxCell>
        <mxCell id="fMsX-KVq4IvT85VDNS2a-24" value="数据查询" style="text;html=1;align=center;verticalAlign=middle;resizable=0;points=[];autosize=1;fontSize=15;fontFamily=Lucida Console;" vertex="1" parent="1">
          <mxGeometry x="827" y="-220" width="80" height="20" as="geometry" />
        </mxCell>
        <mxCell id="fMsX-KVq4IvT85VDNS2a-25" value="外部消息&lt;br&gt;接收中心" style="rounded=1;whiteSpace=wrap;html=1;fontFamily=Lucida Console;fontSize=15;fillColor=#fff2cc;strokeColor=#d6b656;" vertex="1" parent="1">
          <mxGeometry x="100" y="60" width="190" height="200" as="geometry" />
        </mxCell>
        <mxCell id="fMsX-KVq4IvT85VDNS2a-26" value="地址翻译服务" style="rounded=1;whiteSpace=wrap;html=1;fontFamily=Lucida Console;fontSize=15;fillColor=#fff2cc;strokeColor=#d6b656;" vertex="1" parent="1">
          <mxGeometry x="100" y="-160" width="180" height="200" as="geometry" />
        </mxCell>
        <mxCell id="fMsX-KVq4IvT85VDNS2a-27" value="" style="endArrow=classic;html=1;fontFamily=Lucida Console;fontSize=15;entryX=1.014;entryY=0.547;entryDx=0;entryDy=0;entryPerimeter=0;exitX=-0.001;exitY=0.224;exitDx=0;exitDy=0;exitPerimeter=0;" edge="1" parent="1" source="fMsX-KVq4IvT85VDNS2a-11" target="fMsX-KVq4IvT85VDNS2a-26">
          <mxGeometry width="50" height="50" relative="1" as="geometry">
            <mxPoint x="470" y="80" as="sourcePoint" />
            <mxPoint x="520" y="30" as="targetPoint" />
          </mxGeometry>
        </mxCell>
        <mxCell id="fMsX-KVq4IvT85VDNS2a-28" value="" style="endArrow=classic;html=1;fontFamily=Lucida Console;fontSize=15;exitX=-0.005;exitY=0.825;exitDx=0;exitDy=0;exitPerimeter=0;" edge="1" parent="1" source="fMsX-KVq4IvT85VDNS2a-11" target="fMsX-KVq4IvT85VDNS2a-25">
          <mxGeometry width="50" height="50" relative="1" as="geometry">
            <mxPoint x="540" y="161" as="sourcePoint" />
            <mxPoint x="290" y="161" as="targetPoint" />
          </mxGeometry>
        </mxCell>
        <mxCell id="fMsX-KVq4IvT85VDNS2a-29" value="地址翻译" style="text;html=1;align=center;verticalAlign=middle;resizable=0;points=[];autosize=1;fontSize=15;fontFamily=Lucida Console;" vertex="1" parent="1">
          <mxGeometry x="320" y="-90" width="80" height="20" as="geometry" />
        </mxCell>
        <mxCell id="fMsX-KVq4IvT85VDNS2a-30" value="消息推送" style="text;html=1;align=center;verticalAlign=middle;resizable=0;points=[];autosize=1;fontSize=15;fontFamily=Lucida Console;" vertex="1" parent="1">
          <mxGeometry x="330" y="130" width="80" height="20" as="geometry" />
        </mxCell>
      </root>
    </mxGraphModel>
  </diagram>
</mxfile>
